<svg version="1.1" xmlns="http://www.w3.org/2000/svg" xmlns:xlink="http://www.w3.org/1999/xlink" width="1759.40435" height="819.98786" viewBox="0,0,1759.40435,819.98786"><defs><linearGradient x1="523.97701" y1="8.48061" x2="523.97701" y2="55.63588" gradientUnits="userSpaceOnUse" id="color-1"><stop offset="0" stop-color="#79a3ff"/><stop offset="1" stop-color="#4a55ff"/></linearGradient></defs><g transform="translate(559.70216,-8.48062)"><g stroke-miterlimit="10"><path d="M-559.70216,828.46848v-761.26126h1759.40435v761.26126z" fill="#f7f7f7" fill-rule="nonzero" stroke="none" stroke-width="0"/><text transform="translate(90.72704,48.14534) scale(0.30852,0.30852)" font-size="40" xml:space="preserve" fill="#000000" fill-rule="nonzero" stroke="none" stroke-width="1" font-family="&quot;Bahnschrift Universal&quot;, Sans Serif" font-weight="normal" text-anchor="start"><tspan x="0" dy="0">Select the language you'd like to install.</tspan></text><text transform="translate(90.72704,26.62722) scale(0.30852,0.30852)" font-size="40" xml:space="preserve" fill="#000000" fill-rule="nonzero" stroke="#000000" stroke-width="2" font-family="&quot;Bahnschrift Universal&quot;, Sans Serif" font-weight="normal" text-anchor="start"><tspan x="0" dy="0">Language</tspan></text><path d="M500.39937,32.05825c0,-13.02157 10.55607,-23.57763 23.57763,-23.57763c13.02157,0 23.57763,10.55607 23.57763,23.57763c0,13.02157 -10.55607,23.57763 -23.57763,23.57763c-13.02157,0 -23.57763,-10.55607 -23.57763,-23.57763z" fill="url(#color-1)" fill-rule="evenodd" stroke="none" stroke-width="1"/><path d="M500.73777,28.06881c-0.03865,0.22588 -0.07386,0.45348 -0.10564,0.68108c0.03178,-0.23189 0.06699,-0.45949 0.10564,-0.68108z" fill="#74b140" fill-rule="evenodd" stroke="none" stroke-width="1"/><path d="M500.92328,27.80599c-0.07056,0.07966 -0.13326,0.16595 -0.18723,0.25766c0.03092,-0.17979 0.06356,-0.35843 0.09791,-0.53593v-0.00515c0.03521,-0.17864 0.07214,-0.35557 0.11079,-0.5325c0.05613,0.02289 0.1083,0.05449 0.1546,0.09362c0.09533,0.08159 0.20012,0.2276 0.17177,0.36158c-0.0335,0.15975 -0.24048,0.24478 -0.34784,0.36072z" fill="#74b140" fill-rule="evenodd" stroke="none" stroke-width="1"/><path d="M503.57547,20.71432c-0.11917,0.11127 -0.25852,0.19873 -0.41054,0.25766c0.08646,-0.16318 0.17521,-0.32465 0.26625,-0.4844c0.63505,-1.11898 1.36064,-2.1841 2.1695,-3.18468c0.13055,-0.16204 0.2631,-0.32265 0.39766,-0.48182c0.16594,0.0462 0.3139,0.14175 0.42428,0.27398c0.16834,0.20527 0.14085,0.31435 0.03264,0.48612c0.09976,-0.01235 0.19757,-0.03717 0.29116,-0.07386c0.11267,-0.02909 0.23088,-0.02909 0.34355,0c0.22331,0.0627 0.40023,0.23791 0.53593,0.41827c0.22073,0.29287 0.36158,0.64329 0.52219,0.97138l0.51017,1.04181c0.14601,0.29717 0.42342,0.94046 -0.00601,1.15604c-0.15955,0.06926 -0.34478,0.03978 -0.47495,-0.07558c-0.0919,-0.06957 -0.22416,-0.27226 -0.35557,-0.33238c0.04392,0.36894 0.14656,0.72848 0.30404,1.065c0.02551,0.04739 0.02081,0.10536 -0.01202,0.14801c-0.03283,0.04266 -0.08765,0.06205 -0.14,0.04953c-0.12057,-0.02634 -0.24507,-0.02926 -0.36674,-0.00859c0.06184,0.28429 0.05583,0.57716 -0.20183,0.76869c-0.0362,0.02057 -0.07984,0.02339 -0.11839,0.00764c-0.03854,-0.01575 -0.06772,-0.04833 -0.07915,-0.08837c-0.27149,-0.81291 -0.88354,-1.46729 -1.67651,-1.79246c-0.05468,-0.01922 -0.09127,-0.07087 -0.09127,-0.12883c0,-0.05796 0.03659,-0.10961 0.09127,-0.12883c0.30576,-0.08073 0.63642,-0.07386 0.93359,-0.18466c0.15594,-0.04874 0.29032,-0.14975 0.38048,-0.286c0.07472,-0.14 -0.00172,-0.28085 -0.04294,-0.42256c-0.14429,-0.49213 -0.35643,-1.17235 -0.98254,-1.1861c-0.60722,-0.01632 -0.47839,0.72746 -0.63556,1.11653c-0.13484,0.32122 -0.41569,0.56342 -0.77298,0.44232c-0.12969,-0.0438 -0.27226,-0.15631 -0.40453,-0.05926c-0.07055,0.07006 -0.1248,0.15481 -0.15889,0.24821c-0.07816,0.1649 -0.14257,0.33496 -0.27226,0.46722z" fill="#8fd94e" fill-rule="evenodd" stroke="none" stroke-width="1"/><path d="M512.14781,42.79323c0.20527,0.71458 -0.55741,1.08733 -0.78844,1.65933c-0.28257,0.69654 -0.00601,1.49185 -0.32036,2.18925c-0.12569,0.28223 -0.35374,0.50629 -0.63814,0.62697c-0.34784,0.15546 -0.70084,0.23189 -0.98169,0.50759c-0.5136,0.50416 -0.72403,1.28401 -1.06242,1.94018c-0.27226,-0.23791 -0.52992,-0.48354 -0.78758,-0.73347c-0.426,-0.41312 -0.83825,-0.83911 -1.23162,-1.28315c-0.63286,-0.71263 -1.22197,-1.46294 -1.76411,-2.2468c-1.41332,-2.04193 -2.49348,-4.29531 -3.20014,-6.67598l0.00945,0.00515c0.52047,-0.42428 0.84341,-1.2926 1.64731,-1.07015c0.03988,0.01193 0.0722,0.0413 0.0879,0.07986c0.01569,0.03856 0.01306,0.08215 -0.00716,0.11854c-0.02147,0.04638 -0.04208,0.09362 -0.06356,0.14085l1.37419,0.17607c0.37962,0.0481 0.88206,0.02491 1.1526,0.33668c0.11595,0.13398 0.17521,0.30662 0.28772,0.44232c0.1419,0.15585 0.32228,0.27166 0.52305,0.33582c0.33066,0.12282 0.69225,0.16404 1.01776,0.30662c0.27417,0.10839 0.51125,0.29358 0.6828,0.53336c0.07538,0.11277 0.12225,0.24216 0.13656,0.37704c0.01975,0.20098 -0.05067,0.31435 0.1503,0.45091c0.20098,0.13656 0.45091,0.23104 0.6682,0.34355c0.18122,0.09448 0.36158,0.19582 0.54624,0.28171c0.38048,0.18208 0.75666,0.11509 1.14573,0.2276c0.14691,0.04515 0.27972,0.12738 0.38563,0.23877c0.04851,0.05637 0.10043,0.10972 0.15546,0.15975c0.10736,0.08417 0.23619,0.08245 0.36502,0.1065c0.25251,0.04724 0.44146,0.17263 0.50931,0.42514z" fill="#8fd94e" fill-rule="evenodd" stroke="none" stroke-width="1"/><path d="M500.62023,32.63584c-0.06586,-0.03768 -0.14625,-0.03978 -0.21399,-0.00558c-0.00687,-0.19067 -0.00687,-0.38048 -0.00687,-0.57201c0,-0.17807 0.00344,-0.35643 0.01031,-0.53507c0,-0.05669 0,-0.11423 0,-0.17177c0.00429,-0.12368 0.00859,-0.24821 0.0146,-0.37189c0.00344,-0.0773 0.01117,-0.1546 0.01117,-0.23104c0.00687,-0.13484 0.01546,-0.26195 0.02491,-0.3925c0.00687,-0.1065 0.01632,-0.21214 0.02491,-0.31778l0.0189,-0.1357c0.03493,-0.38706 0.0793,-0.77184 0.13312,-1.15432c0.0584,0.06871 0.14944,0.09276 0.28085,0.0146c0.13141,-0.07816 0.18809,-0.22846 0.23275,-0.36588c0.08589,-0.26281 0.14257,-0.80562 0.47667,-0.8915c0.27484,-0.06957 0.40281,0.25422 0.41655,0.46722c0.00145,0.16161 -0.01818,0.32272 -0.0584,0.47925c0.37447,-0.30662 0.95506,-0.69225 0.33668,-1.04267c-0.19426,-0.10081 -0.34643,-0.26729 -0.42943,-0.4698c-0.11337,-0.24564 -0.25337,-0.38649 -0.5282,-0.42943c-0.09837,-0.01448 -0.19776,-0.0208 -0.29717,-0.0189c0.09276,-0.38305 0.19582,-0.76353 0.30662,-1.13972c0.00945,-0.03092 0.0189,-0.06184 0.02748,-0.0919c0.0335,-0.11165 0.06785,-0.22331 0.10306,-0.3341c0.01288,-0.03865 0.02662,-0.08331 0.04037,-0.12454c0.05325,-0.1649 0.10822,-0.32981 0.1649,-0.49299l0.08589,-0.24134l0.08159,-0.22331c0.03693,-0.09705 0.07386,-0.19496 0.11165,-0.29201c0.02233,-0.05754 0.0438,-0.11509 0.06613,-0.17177c0.06785,0.05067 0.13398,0.10049 0.19582,0.14858c0.64587,0.51274 1.17579,1.32351 1.00402,2.16778c0.19239,0 0.3487,-0.15975 0.4071,-0.35042c0.07386,-0.24478 0.00086,-0.51274 -0.05583,-0.75409c-0.01085,-0.04062 -0.00238,-0.08397 0.02295,-0.11752c0.02533,-0.03355 0.0647,-0.05357 0.10674,-0.05426c0.31357,0.04637 0.61985,-0.1209 0.75033,-0.40978c0.13047,-0.28888 0.05348,-0.62926 -0.18863,-0.83386c-0.02935,-0.02958 -0.04337,-0.07106 -0.038,-0.11237c0.00537,-0.04132 0.02955,-0.07783 0.06548,-0.09891c0.48699,-0.19949 0.82981,-0.64456 0.89838,-1.16634c0.00142,-0.04766 0.02744,-0.09117 0.06875,-0.11498c0.04131,-0.02381 0.092,-0.0245 0.13395,-0.00183c0.43802,0.18723 0.94304,0.43115 1.14401,0.89494c0.11423,0.2611 0.01374,0.64845 0.31091,0.78586c0.35214,0.16233 0.70771,-0.11337 0.97138,-0.32122c0.03937,-0.03611 0.09611,-0.04613 0.14547,-0.02569c0.04936,0.02044 0.0824,0.06764 0.08471,0.12102c0.11326,1.03862 0.40376,2.05013 0.85887,2.99058c0.02962,0.053 0.02043,0.11922 -0.0225,0.16215c-0.04293,0.04293 -0.10915,0.05212 -0.16215,0.0225c-0.24478,-0.13055 -0.5617,0.19754 -0.77298,0.29373c-0.24306,0.11079 -0.48011,0.09276 -0.73176,0.0189c-0.32293,-0.09448 -0.60722,-0.19325 -0.94475,-0.10736c-0.23537,0.06044 -0.44756,0.18925 -0.6098,0.37017l0.82194,0.0189c0.04206,0.00077 0.08145,0.02075 0.10691,0.05425c0.02545,0.03349 0.03417,0.0768 0.02364,0.11753c-0.08039,0.40813 0.06183,0.82827 0.37361,1.10364c0.03275,0.03444 0.04524,0.08343 0.03297,0.12935c-0.01227,0.04592 -0.04753,0.08215 -0.09309,0.09567c-0.22416,0.07043 -0.44919,0.15631 -0.67765,0.21128c-0.11663,0.0413 -0.24591,0.02506 -0.3487,-0.0438c-0.11509,-0.08675 -0.18294,-0.23705 -0.2465,-0.37103c-0.02388,0.04221 -0.05272,0.08142 -0.08589,0.11681c-0.14257,0.1503 -0.33668,0.17263 -0.52477,0.23619c-0.26539,0.08932 -0.57115,0.34011 -0.42342,0.65274c0.02308,0.04201 0.02261,0.093 -0.00124,0.13458c-0.02386,0.04157 -0.06765,0.06771 -0.11556,0.06898c-0.52459,0.05066 -1.00546,0.31423 -1.33039,0.72918c-0.07043,0.08675 -0.19325,0.02577 -0.22502,-0.06012c-0.00046,-0.00284 -0.00046,-0.00574 0,-0.00859c0.00687,0.17435 0.06699,0.35557 0.05239,0.52734c-0.01802,0.17006 -0.08788,0.33047 -0.20012,0.45949c-0.27656,0.33753 -0.70427,0.44833 -1.05555,0.68108c-0.83052,0.54882 -0.05411,1.63872 -0.54882,2.36532c-0.0215,0.03569 -0.05811,0.05962 -0.09943,0.06497c-0.04132,0.00535 -0.08282,-0.00845 -0.11271,-0.03749c-0.18985,-0.22417 -0.3054,-0.50178 -0.33066,-0.79445c-0.01374,-0.17779 0.05669,-0.34956 0.0438,-0.52133c-0.00484,-0.07573 -0.04738,-0.14397 -0.11324,-0.18165z" fill="#8fd94e" fill-rule="evenodd" stroke="none" stroke-width="1"/><path d="M501.58975,35.49458c-0.23189,-0.06356 -0.46379,-0.08331 -0.65016,-0.24993c-0.12368,-0.10994 -0.19926,-0.24478 -0.3633,-0.29803c-0.02147,-0.17693 -0.04123,-0.35385 -0.05926,-0.5325c0.09276,0.03092 0.18208,0.07129 0.25766,0.10392c0.16489,0.0715 0.32299,0.15773 0.47238,0.25766c0.13227,0.08932 0.25337,0.21815 0.39508,0.2903c0.18895,0.09533 0.41312,0.05239 0.61838,0.05067c0.20527,-0.00172 0.40968,0.00687 0.61495,0.01975c0.1065,0.00773 0.19153,0.14944 0.09533,0.23018c-0.19582,0.1649 -0.4217,0.34612 -0.68709,0.36931c-0.27484,0.02319 -0.44403,-0.17006 -0.69397,-0.24134z" fill="#74b140" fill-rule="evenodd" stroke="none" stroke-width="1"/><path d="M503.51019,35.73248c0.25251,0.00687 0.57716,0.14171 0.41569,0.44919c-0.02389,0.04177 -0.0687,0.06714 -0.11681,0.06613c-0.27999,-0.01804 -0.50501,0.06356 -0.77298,0.10736c-0.12802,0.02683 -0.26146,0.00347 -0.37275,-0.06527c-0.03963,-0.00569 -0.07528,-0.02713 -0.09889,-0.05947c-0.0236,-0.03234 -0.03316,-0.07283 -0.02651,-0.11231c0.00321,-0.05553 0.03601,-0.10506 0.08589,-0.12969c0.08073,-0.10135 0.16834,-0.22331 0.28944,-0.25766c0.17521,-0.05067 0.41741,-0.00344 0.59691,0.00172z" fill="#74b140" fill-rule="evenodd" stroke="none" stroke-width="1"/><path d="M506.26286,16.50244c0.16719,-0.1941 0.33897,-0.38477 0.51532,-0.57201c0.01874,0.02703 0.03484,0.05579 0.0481,0.08589c0.12883,0.286 -0.07558,0.50587 -0.36502,0.50587c-0.06653,-0.0016 -0.13286,-0.0082 -0.1984,-0.01975z" fill="#74b140" fill-rule="evenodd" stroke="none" stroke-width="1"/><path d="M507.37532,15.74345c-0.05076,0.02079 -0.10903,0.00919 -0.14796,-0.02945c-0.04667,-0.03704 -0.09637,-0.07008 -0.14858,-0.09877c0.1294,-0.13227 0.26024,-0.26367 0.3925,-0.39422c0,0.02061 0,0.04123 0,0.06356c-0.00344,0.11165 -0.01117,0.22245 -0.01117,0.3341c-0.00064,0.05485 -0.03403,0.10399 -0.08479,0.12478z" fill="#74b140" fill-rule="evenodd" stroke="none" stroke-width="1"/><path d="M507.67999,15.01831c0.16147,-0.15374 0.32551,-0.30576 0.49041,-0.45606c0.01031,-0.00859 0.02061,-0.01718 0.03006,-0.02662c0.15202,-0.13656 0.30576,-0.27054 0.46121,-0.40367l0.06871,-0.0584c0.14944,-0.12597 0.3006,-0.25165 0.45348,-0.37704l0.05239,-0.04208c0.16834,-0.13513 0.33839,-0.26797 0.51017,-0.39851c0.3152,0.07129 0.67078,0.06098 0.90439,0.33324c0.03271,0.03449 0.04527,0.08345 0.0332,0.12943c-0.01206,0.04598 -0.04704,0.08246 -0.09247,0.09646l-0.68709,0.19153c-0.18036,0.04981 -0.39508,0.07902 -0.55655,0.17779c-0.14601,0.08846 -0.19582,0.25422 -0.36158,0.31778c-0.13914,0.05411 -0.27999,0.02662 -0.42342,0.02662c-0.29631,0.00515 -0.19067,0.14944 -0.29631,0.33496c-0.05504,0.0937 -0.14999,0.15701 -0.25766,0.17177c-0.11079,0.02319 -0.22331,-0.01718 -0.32895,-0.01718z" fill="#8fd94e" fill-rule="evenodd" stroke="none" stroke-width="1"/><path d="M515.3617,20.8277c-0.16402,0.03057 -0.3217,0.08865 -0.46637,0.17177c-0.12797,0.08159 -0.21214,0.20269 -0.32122,0.3049c-0.20699,0.19239 -0.41397,0.20527 -0.68709,0.19239c-0.67593,-0.03178 -0.97911,0.63814 -1.19125,1.17665c-0.18294,0.46379 -0.38305,0.92844 -0.8228,1.20241c-0.04194,0.02362 -0.09323,0.02341 -0.13498,-0.00055c-0.04175,-0.02396 -0.06781,-0.06813 -0.06857,-0.11626c-0.01995,-0.24741 -0.17539,-0.46338 -0.40367,-0.56084c-0.11681,-0.04896 -0.25766,-0.0627 -0.34355,-0.16233c-0.1065,-0.11766 -0.06957,-0.2422 -0.06098,-0.38391c0.01374,-0.24907 -0.08159,-0.44232 -0.18809,-0.66305c-0.14944,-0.30919 -0.23877,-0.60636 -0.19582,-0.94991c0.04123,-0.3341 0.17693,-0.64587 0.31005,-0.95163c0.15288,-0.36158 0.33582,-0.74206 0.34355,-1.14487c0.00773,-0.47238 -0.25938,-0.84083 -0.50759,-1.2153c-0.21472,-0.32551 -0.14085,-0.7558 -0.40882,-1.04438c-0.24684,-0.26857 -0.63501,-0.35464 -0.97224,-0.21558c-0.0362,0.02057 -0.07984,0.02339 -0.11839,0.00764c-0.03854,-0.01575 -0.06772,-0.04833 -0.07915,-0.08837c-0.0349,-0.14801 -0.00591,-0.30387 0.07987,-0.42943l-0.31778,-0.10392c-0.04542,-0.01373 -0.08047,-0.05005 -0.09255,-0.09594c-0.01208,-0.04589 0.00052,-0.09476 0.03329,-0.12908c0.05417,-0.06784 0.11952,-0.12593 0.19325,-0.17177c-0.14452,-0.12951 -0.22828,-0.31356 -0.23104,-0.50759c0.00047,-0.07428 0.06057,-0.13437 0.13484,-0.13484l0.84513,-0.00429l-0.11165,-0.41913c-0.01121,-0.04065 -0.00289,-0.08419 0.02252,-0.11784c0.02541,-0.03365 0.06501,-0.05358 0.10717,-0.05393c0.47152,0.05239 0.82108,-0.09877 1.2445,-0.27054c0.29717,-0.12282 0.63642,-0.11681 0.95334,-0.10994c0.28269,-0.0047 0.56351,0.04668 0.82623,0.15116c0.13489,0.06026 0.25725,0.14534 0.36072,0.25079l0.0773,0.08589c0.06957,0.05497 0.09276,0.05497 0.06957,0c0.01374,-0.03092 -0.02319,-0.12969 -0.0189,-0.17177c0.02061,-0.22674 0.23705,-0.36072 0.44318,-0.38563c0.20613,-0.02491 0.40367,0.04208 0.6098,-0.01031c0.18036,-0.04724 0.34698,-0.14687 0.52391,-0.20956c0.26711,-0.09448 0.59949,-0.12454 0.81249,0.09791c0.09416,0.09584 0.14716,0.22466 0.14773,0.35901c0.43029,-0.08589 1.1526,-0.21386 1.20843,0.25766c0.01221,0.09964 -0.02198,0.19936 -0.09276,0.27054c0.08731,-0.00262 0.17443,0.00958 0.25766,0.03607c0.04543,0.014 0.0804,0.05048 0.09247,0.09646c0.01206,0.04598 -0.0005,0.09493 -0.0332,0.12942c-0.25079,0.25852 0.1357,0.10736 0.26453,0.06785c0.136,-0.04116 0.27807,-0.05859 0.41999,-0.05153c0.28334,0.01419 0.5545,0.11964 0.77298,0.3006c0.03492,0.03405 0.04843,0.08446 0.03521,0.13141c-0.10221,0.41397 -0.59605,0.2757 -0.81335,0.55483c-0.12883,0.1649 -0.10736,0.41569 -0.13828,0.61237c-0.03338,0.18275 -0.10573,0.35617 -0.21214,0.50845c-0.27054,0.44833 0.11766,1.06671 -0.13141,1.5348c-0.10677,0.21166 -0.36255,0.29996 -0.57716,0.19926l-0.10306,0.14343c0.33739,0.30685 0.37155,0.82564 0.0773,1.17407c-0.02532,0.031 -0.0653,0.04607 -0.10478,0.03951c0.03815,0.04102 0.04446,0.10237 0.01546,0.1503c-0.2757,0.49728 -0.84169,0.55053 -1.33382,0.66648z" fill="#8fd94e" fill-rule="evenodd" stroke="none" stroke-width="1"/><path d="M516.96349,22.95855c-0.24735,-0.01975 -0.60035,-0.07558 -0.75409,-0.29459c-0.17177,-0.24564 -0.0146,-0.65789 -0.26797,-0.85286c-0.07395,-0.10258 -0.07395,-0.24097 0,-0.34355c0.14,-0.24048 0.31864,-0.16748 0.46207,-0.13055c0.12574,0.03311 0.23821,0.10419 0.32208,0.20355c0.14687,0.17006 0.23791,0.25938 0.47667,0.19582c0.32208,-0.08589 0.58661,-0.37361 0.94475,-0.31091c0.26625,0.04896 0.23361,0.26281 0.18981,0.47839c-0.05926,0.29459 -0.13055,0.65703 -0.3968,0.83396c-0.29361,0.17591 -0.63581,0.25326 -0.97653,0.22073z" fill="#8fd94e" fill-rule="evenodd" stroke="none" stroke-width="1"/><path d="M523.03682,16.94598c-0.0447,-0.01217 -0.0801,-0.04632 -0.09389,-0.09055c-0.06527,-0.31263 -0.43802,-0.44747 -0.37447,-0.81421c0.05411,-0.32036 0.34355,-0.45692 0.63814,-0.40624c0.03885,0.00591 0.0716,0.0321 0.08589,0.06871c0.13742,-0.05583 0.27054,-0.21643 0.35643,-0.28429c0.10081,-0.08284 0.21783,-0.14369 0.34355,-0.17864c0.26195,-0.06957 0.54366,-0.02491 0.80132,0.03951c0.18466,0.04638 0.43373,0.10049 0.47839,0.32036c0.03435,0.18036 -0.12024,0.36244 -0.27656,0.40882c-0.15631,0.04638 -0.31263,-0.00773 -0.46121,-0.0481c-0.10049,-0.02491 -0.14601,-0.05669 -0.24821,0c-0.13055,0.07558 -0.07987,0.11337 -0.07987,0.24735c0.00429,0.26539 -0.04208,0.54968 -0.27226,0.7163c-0.13742,0.09877 -0.35815,0.13914 -0.48526,0c-0.05781,-0.06294 -0.08065,-0.15045 -0.06098,-0.23361l-0.00687,0.00773c-0.0627,0.07644 -0.14773,0.14687 -0.21729,0.21643c-0.03431,0.03113 -0.08214,0.0426 -0.12684,0.03043z" fill="#8fd94e" fill-rule="evenodd" stroke="none" stroke-width="1"/><path d="M533.7827,37.91572c-0.33152,1.52277 -1.70571,2.4263 -2.47869,3.70086c-0.2135,0.33747 -0.36233,0.71172 -0.43888,1.10364c-0.08073,0.46379 0.03435,0.89838 0.10478,1.35358c0.08675,0.56685 0.02662,1.27027 -0.55483,1.55369c-0.14687,0.07214 -0.31606,0.09619 -0.43888,0.22846c-0.12282,0.13227 -0.14085,0.32809 -0.15546,0.49986c-0.02405,0.28429 -0.0292,0.55741 -0.13141,0.82881c-0.22331,0.59605 -0.65789,1.11223 -1.04524,1.60866c-0.3487,0.44747 -0.61581,1.04524 -1.10193,1.36131c-0.31177,0.20441 -0.73519,0.2276 -1.09677,0.25766c-0.32122,0.02577 -0.7704,0.09276 -1.07616,-0.04294c-0.20355,-0.09018 -0.31177,-0.38907 -0.39766,-0.57544c-0.12867,-0.28054 -0.23297,-0.57162 -0.31177,-0.87003c-0.19153,-0.69654 -0.37017,-1.38535 -0.57888,-2.08361c-0.2087,-0.69826 -0.35557,-1.42228 -0.24993,-2.15146c0.05926,-0.41054 0.17349,-0.81249 0.13312,-1.23076c-0.03514,-0.35169 -0.15285,-0.69011 -0.34355,-0.9877c-0.17091,-0.26625 -0.46465,-0.45864 -0.59348,-0.74807c-0.12883,-0.28944 -0.01804,-0.57286 0.08589,-0.84942c0.06613,-0.1692 0.14858,-0.37618 0.08589,-0.55826c-0.06871,-0.20012 -0.28343,-0.19582 -0.45091,-0.25766c-0.21987,-0.08073 -0.38907,-0.23791 -0.57029,-0.38048c-0.13828,-0.10908 -0.30662,-0.24735 -0.49728,-0.20269c-0.13055,0.03092 -0.23361,0.14171 -0.34355,0.21815c-0.24048,0.16748 -0.5033,0.18036 -0.78672,0.16147c-0.21987,-0.01546 -0.43201,-0.03693 -0.64415,0.03951c-0.14085,0.05067 -0.27054,0.12969 -0.40624,0.19239c-0.22416,0.10221 -0.46207,0.17091 -0.70771,0.10221c-0.28085,-0.07816 -0.49643,-0.29373 -0.69311,-0.49643c-0.25766,-0.26539 -0.53078,-0.52563 -0.76697,-0.80905c-0.21558,-0.25766 -0.20785,-0.51446 -0.29373,-0.82108c-0.08159,-0.27913 -0.34355,-0.37533 -0.51532,-0.58832c-0.14152,-0.16559 -0.15145,-0.40649 -0.02405,-0.58317c0.08675,-0.13656 0.20785,-0.23962 0.21472,-0.4114c0.00355,-0.18357 -0.10152,-0.35195 -0.26797,-0.42943c-0.04118,-0.02458 -0.06657,-0.06885 -0.06699,-0.11681c-0.02551,-0.48376 0.15011,-0.95655 0.48526,-1.30634c0.09533,-0.09705 0.21386,-0.16748 0.30747,-0.26367c0.12969,-0.13312 0.10306,-0.25852 0.12969,-0.41827c0.02614,-0.16148 0.14968,-0.28981 0.31005,-0.32208c0.19668,-0.05497 0.39164,-0.02319 0.52734,-0.20613c0.10221,-0.13914 0.13484,-0.32809 0.17177,-0.49385c0.07386,-0.34355 0.15116,-0.6828 0.41741,-0.93531c0.66133,-0.62611 1.63614,-0.36845 2.4452,-0.42514c0.30754,-0.02567 0.60599,-0.11705 0.87519,-0.26797c0.16662,-0.08589 0.34698,-0.1838 0.54023,-0.1838c0.4114,-0.00859 0.51961,0.34526 0.6828,0.64415c0.13914,0.25594 0.3633,0.29201 0.62096,0.3779c0.17563,0.05792 0.339,0.14791 0.48182,0.26539c0.19325,0.15546 0.38649,0.39508 0.639,0.45005c0.12797,0.02748 0.36158,-0.01374 0.43974,-0.14c-0.09362,-0.23533 0.10135,-0.48097 0.35385,-0.50759c0.22932,-0.02577 0.47495,0.08331 0.68709,0.14601l0.76525,0.22502c0.38907,0.11509 0.83482,0.20012 1.12082,0.48526c0.286,0.28514 0.52477,0.63642 0.76783,0.9585c0.26902,0.34992 0.51517,0.71685 0.73691,1.09849c0.20956,0.37103 0.35557,0.76869 0.55311,1.14401c0.20699,0.39336 0.54882,0.63299 0.81335,0.97653c0.20613,0.26711 0.33238,0.71973 0.68709,0.82537c0.3152,0.09276 0.66476,-0.13055 0.94475,-0.24134c0.26539,-0.10478 0.54109,-0.17177 0.81592,-0.06098c0.06324,0.02562 0.09879,0.0931 0.08417,0.15975z" fill="#8fd94e" fill-rule="evenodd" stroke="none" stroke-width="1"/><path d="M533.50872,45.08383c-0.06508,0.27822 -0.16887,0.54593 -0.30833,0.79531c-0.15889,0.31091 -0.35643,0.57115 -0.43545,0.91985c-0.05926,0.2611 -0.09791,0.53336 -0.24564,0.76353c-0.18208,0.28257 -0.73605,0.57716 -0.90782,0.11079c-0.14773,-0.40624 -0.0773,-0.92414 0.22674,-1.23076c-0.10739,-0.39305 -0.0265,-0.81367 0.21901,-1.13886c0.1692,-0.21901 0.40367,-0.30318 0.61237,-0.48955c0.2087,-0.18637 0.33496,-0.44403 0.45864,-0.68709c0.03144,-0.05172 0.09332,-0.07636 0.1517,-0.06042c0.05838,0.01594 0.09915,0.06862 0.09995,0.12913c-0.01632,0.30833 0.18637,0.56513 0.12883,0.88807z" fill="#8fd94e" fill-rule="evenodd" stroke="none" stroke-width="1"/><path d="M518.70698,25.4819c0.02219,-0.05917 0.08614,-0.09133 0.14687,-0.07386c0.06071,-0.01346 0.12394,-0.0102 0.18294,0.00945c0.04126,0.01235 0.07353,0.04463 0.08589,0.08589c0.10432,0.04403 0.19759,0.11061 0.27312,0.19496c0.14687,0.17091 0.15116,0.4114 0.1838,0.6244c0.02577,0.16576 0.06012,0.32465 -0.12539,0.39766c-0.26619,0.0953 -0.54215,0.16069 -0.8228,0.19496c-0.16576,0.02233 -0.33839,-0.00429 -0.40281,-0.18981c-0.06442,-0.18552 0.05669,-0.32551 0.17607,-0.44318c0.06718,-0.05759 0.11737,-0.13242 0.14515,-0.21643c0.0031,-0.08278 0.00109,-0.16568 -0.00601,-0.24821c0.00389,-0.09224 0.03366,-0.18153 0.08589,-0.25766c0.022,-0.02953 0.04801,-0.05583 0.0773,-0.07816z" fill="#8fd94e" fill-rule="evenodd" stroke="none" stroke-width="1"/><path d="M519.80805,25.24485c-0.10198,-0.23598 -0.12605,-0.49833 -0.06871,-0.74893c0.03178,-0.14601 0.10564,-0.24907 0.26281,-0.25766c0.3049,-0.01718 0.36674,0.07472 0.4844,0.37103c0.12454,0.31435 0.39766,0.5325 0.52133,0.852c0.06355,0.1543 0.08918,0.32159 0.07472,0.48784c-0.00859,0.08417 -0.03779,0.15631 -0.05411,0.2422c-0.03006,0.15202 0.00687,0.27827 0.02233,0.42943c0.03092,0.29201 -0.12368,0.35729 -0.36931,0.45005c-0.20956,0.0773 -0.67593,0.23447 -0.84255,-0.00859c-0.14944,-0.22502 0.06871,-0.65617 0.17177,-0.85887c0.12196,-0.23018 0.20183,-0.38993 0.03607,-0.61581c-0.09239,-0.10475 -0.1725,-0.21973 -0.23877,-0.34269z" fill="#8fd94e" fill-rule="evenodd" stroke="none" stroke-width="1"/><path d="M541.47386,38.61055c0.05266,0.13662 0.07123,0.28402 0.05411,0.42943c0.00766,0.14868 -0.00243,0.29774 -0.03006,0.44403c-0.06012,0.23877 -0.33152,0.35557 -0.51532,0.15288c-0.09619,-0.10564 -0.1065,-0.24735 -0.1065,-0.38305c-0.00601,-0.20269 0,-0.40624 0,-0.6098c0.00037,-0.0219 0.00596,-0.0434 0.01632,-0.0627c0.00248,-0.02956 0.01489,-0.05741 0.03521,-0.07902c0.16318,-0.18208 0.44489,-0.09791 0.54624,0.10822z" fill="#8fd94e" fill-rule="evenodd" stroke="none" stroke-width="1"/><path d="M546.03272,40.40902c-0.05067,0.13227 -0.09705,0.2568 -0.15374,0.39594c-0.05669,0.13914 -0.11337,0.27827 -0.17177,0.41569c-0.10135,-0.1546 -0.20183,-0.30919 -0.30404,-0.46379l-0.40195,-0.60894c-0.12282,-0.18552 -0.24048,-0.39422 -0.45949,-0.47581c-0.14171,-0.00172 -0.19153,-0.22674 -0.03521,-0.26367h0.01031c0.01161,-0.0041 0.02377,-0.00641 0.03607,-0.00687c0.34097,-0.05754 0.59348,0.14429 0.81764,0.38993c0.20806,0.21902 0.4292,0.42524 0.66219,0.61753z" fill="#8fd94e" fill-rule="evenodd" stroke="none" stroke-width="1"/><path d="M530.08527,17.83111c0.3341,-0.3968 0.68709,-0.77985 1.03064,-1.16978l0.51532,-0.58403c0.1357,-0.15546 0.26367,-0.3341 0.43545,-0.4552c0.22932,-0.16061 0.56084,-0.17779 0.68709,0.11079c0.12625,0.28858 -0.05669,0.56513 -0.28858,0.72746c-0.40367,0.28257 -1.49872,1.25566 -1.04009,1.77871c0.16576,0.18895 0,0.71973 -0.09877,0.75494c-0.07386,0.15717 -0.47581,0.11852 -0.46293,0.08589c-0.27398,-0.06613 -0.30576,-0.073 -0.51532,-0.27484c-0.26539,-0.25508 -0.52992,-0.64587 -0.26281,-0.97396z" fill="#8fd94e" fill-rule="evenodd" stroke="none" stroke-width="1"/><path d="M547.55206,32.05825c-0.00057,0.17807 -0.00286,0.35614 -0.00687,0.53422c0,0.03865 0,0.0773 0,0.11509c-0.00429,0.15288 -0.01031,0.30404 -0.01718,0.45606c-0.00344,0.073 -0.01117,0.14601 -0.01117,0.21815c-0.00515,0.10135 -0.01202,0.20269 -0.0189,0.30318c-0.00945,0.13484 -0.0189,0.26195 -0.03006,0.3925c-0.00601,0.02147 -0.00601,0.04208 -0.00601,0.06356c-0.01832,0.21071 -0.03951,0.42027 -0.06356,0.62869c-0.01775,0.16032 -0.0375,0.32007 -0.05926,0.47925c-0.02977,0.21529 -0.06212,0.43001 -0.09705,0.64415c-0.00515,0.03521 -0.01117,0.07043 -0.01718,0.10564c-0.02748,0.15918 -0.05611,0.31778 -0.08589,0.47581c-0.01288,0.06699 -0.02491,0.13398 -0.03865,0.20012c-0.01632,0.08331 -0.0335,0.16404 -0.05067,0.24993c-0.02748,0.13227 -0.05669,0.26453 -0.08589,0.39594c-0.01374,0.06012 -0.02834,0.12024 -0.04294,0.18036c-0.0292,0.11681 -0.05669,0.23018 -0.08589,0.34355l-0.03607,0.14601c-0.08474,0.32694 -0.17664,0.65131 -0.2757,0.9731c-0.05268,0.17177 -0.10764,0.34355 -0.1649,0.51532v0.00687c-0.05783,0.17177 -0.11681,0.34355 -0.17693,0.51532c-0.26181,-0.32865 -0.47685,-0.69196 -0.639,-1.0796c-0.15959,-0.39454 -0.26811,-0.80785 -0.32293,-1.2299c-0.06184,-0.426 -0.10994,-0.85543 -0.30833,-1.23849c-0.1649,0.13312 -0.37962,0.2087 -0.5428,0.01632c-0.11852,-0.13914 -0.16147,-0.34698 -0.24048,-0.51017c-0.09687,-0.19826 -0.20765,-0.3894 -0.33152,-0.57201c-0.14,-0.20613 -0.286,-0.48612 -0.56342,-0.45176c-0.16061,0.01975 -0.26797,0.07902 -0.43545,0.02405c-0.11089,-0.03716 -0.2093,-0.10435 -0.28429,-0.1941c-0.08575,0.31278 -0.24743,0.59955 -0.47066,0.83482c-0.18809,0.18552 -0.41827,0.29974 -0.56084,0.52906c-0.11357,0.19955 -0.18983,0.41812 -0.22502,0.64501c-0.14515,0.7601 -0.09877,1.76927 -0.91813,2.16177c-0.06452,0.03581 -0.1458,0.01464 -0.18466,-0.0481c-0.34355,-0.64845 -0.68709,-1.30033 -0.92414,-1.99601c-0.18637,-0.54195 -0.20613,-1.18094 -0.42943,-1.71774c-0.0146,0.0773 -0.0292,0.15546 -0.04294,0.23275c-0.01194,0.04635 -0.04813,0.08254 -0.09448,0.09448c-0.29545,0.04037 -0.48097,-0.12797 -0.639,-0.36158c-0.21987,-0.32551 -0.40968,-0.67335 -0.60808,-1.0169l-0.02147,0.00429c-0.44403,0.04724 -0.88807,0.09877 -1.33296,0.14257c-0.28343,0.02662 -0.56256,0.03521 -0.79875,-0.14515c-0.14171,-0.10478 -0.24048,-0.26195 -0.39937,-0.33839c-0.05069,-0.02372 -0.10403,-0.04131 -0.15889,-0.05239c0.31263,0.42772 0.40624,1.14745 0.96107,1.25824c0.07158,0.02005 0.1137,0.09396 0.09448,0.16576c-0.639,1.58805 -2.38078,2.05441 -3.89582,2.38508c-0.04073,0.01052 -0.08404,0.00181 -0.11753,-0.02364c-0.03349,-0.02545 -0.05348,-0.06484 -0.05425,-0.10691c-0.0627,-0.67421 -0.78844,-1.07187 -1.06929,-1.6516c-0.17006,-0.34956 -0.26195,-0.72488 -0.45348,-1.06843c-0.15803,-0.28171 -0.55139,-0.96451 -0.94905,-0.89322c-0.07155,0.01731 -0.1442,-0.02409 -0.16576,-0.09448c-0.09791,-0.37447 -0.59863,-0.59605 -0.44833,-1.04095c0.07558,-0.22674 0.3006,-0.38821 0.42943,-0.58403c0.14173,-0.21976 0.23295,-0.46821 0.26711,-0.72746c-0.51017,-0.01374 -1.02033,-0.02577 -1.5305,-0.04037c-0.35901,-0.00687 -0.65188,-0.06184 -0.78844,-0.42943c-0.05754,-0.15546 -0.06098,-0.32809 -0.12024,-0.48268c-0.04724,-0.12454 -0.2276,-0.41741 -0.38048,-0.15975c-0.0481,0.07386 -0.00859,0.25079 0,0.33152c0.02577,0.23962 0.02405,0.56771 -0.22416,0.70427c-0.29116,0.16061 -0.49986,-0.15288 -0.58918,-0.3822c-0.08932,-0.22932 -0.11852,-0.48268 -0.22502,-0.70513c-0.11337,-0.23619 -0.32122,-0.37618 -0.52649,-0.52477l-0.67421,-0.48784c-0.04123,-0.03006 -0.26968,-0.23791 -0.31349,-0.22331c-0.16748,0.05497 0.01804,0.20527 0.06785,0.26367c0.32747,0.37384 0.73058,0.6739 1.18266,0.88034c0.04545,0.02823 0.07023,0.0804 0.06339,0.13347c-0.00684,0.05307 -0.04404,0.09725 -0.09517,0.11303c-0.21472,0.04037 -0.26367,0.31864 -0.34355,0.49041c-0.06583,0.15433 -0.18008,0.28306 -0.32551,0.36674c-0.30809,0.16498 -0.68834,0.10459 -0.93015,-0.14773c-0.03688,-0.03913 -0.04738,-0.09625 -0.0268,-0.14593c0.02058,-0.04968 0.06839,-0.08266 0.12214,-0.08424c0.09003,-0.00225 0.17957,-0.01405 0.26711,-0.03521c0.08442,-0.01563 0.15935,-0.06373 0.2087,-0.13398l-0.07214,-0.22159c-0.07558,-0.06527 -0.26281,-0.05497 -0.36072,-0.11766c-0.19325,-0.12539 -0.29116,-0.34526 -0.37704,-0.54882c-0.04667,-0.13959 -0.11858,-0.26943 -0.21214,-0.38305c-0.05712,-0.0679 -0.1312,-0.11946 -0.21472,-0.14944c-0.15374,-0.04123 -0.19582,0.06699 -0.28171,0.1649c-0.11766,0.13227 -0.24993,0.25766 -0.44318,0.17177c-0.17607,-0.07902 -0.25165,-0.29631 -0.26797,-0.47495c-0.00687,-0.073 0.02233,-0.4217 -0.04638,-0.45864c-0.04981,-0.02577 -0.07129,0.24993 -0.07129,0.27827c0,0.16147 0.00945,0.35128 -0.08589,0.49127c-0.03733,0.05717 -0.09128,0.10154 -0.1546,0.12711c-0.03176,0.01134 -0.06507,0.01771 -0.09877,0.0189l0.08589,0.04724c0.04046,0.02484 0.06511,0.0689 0.06511,0.11638c0,0.04747 -0.02465,0.09154 -0.06511,0.11638c-0.21009,0.14826 -0.40156,0.32128 -0.57029,0.51532c-0.16147,0.20098 -0.18552,0.41226 -0.27741,0.63986c-0.14171,0.33925 -0.67593,0.44575 -1.00058,0.45005c-0.3968,0.00859 -0.70599,-0.24048 -0.85114,-0.60121c-0.16318,-0.40539 -0.07129,-0.84255 0.04208,-1.25051h-0.07644c-0.17177,-0.00687 -0.17177,-0.27656 0,-0.26968c0.28715,0.0146 0.57505,-0.00123 0.85887,-0.04724c0.22932,-0.03865 0.53078,-0.08245 0.70771,-0.24392c0.2757,-0.24907 0.01546,-0.47839 -0.17177,-0.66219l-0.57201,-0.56342c-0.03688,-0.03913 -0.04738,-0.09625 -0.0268,-0.14593c0.02058,-0.04968 0.06839,-0.08266 0.12214,-0.08424c0.3633,0 0.73863,-0.00687 1.08733,-0.1211c0.41569,-0.1357 0.61151,-0.41655 0.78844,-0.79875c0.26625,-0.57802 0.82108,-0.94905 1.44805,-0.77298c0.03683,-0.01409 0.07837,-0.00755 0.10908,0.01718c0.16147,0.11766 0.31005,0.20269 0.49127,0.07386c0.0627,-0.04552 0.10822,-0.11337 0.17607,-0.15717c0.15658,-0.08991 0.33107,-0.14416 0.51103,-0.15889c0.20785,-0.02748 0.42857,-0.02577 0.62783,-0.09619c0.33668,-0.11852 0.39851,-0.3925 0.34355,-0.71114c-0.07129,-0.41741 0.18637,-0.68795 0.58661,-0.76096c0.25422,-0.04724 0.51103,-0.02577 0.75838,-0.11165c0.19665,-0.07191 0.37331,-0.18969 0.51532,-0.34355c-0.43641,-0.10044 -0.89415,-0.04642 -1.29517,0.15288c-0.13484,0.06785 -0.25852,0.15717 -0.41397,0.09362c-0.13095,-0.06713 -0.23315,-0.1794 -0.28772,-0.31606c-0.12883,-0.27312 -0.09276,-0.59691 0.01546,-0.87003c0.05898,-0.14942 0.13941,-0.28946 0.23877,-0.41569c0.11165,-0.14429 0.28514,-0.30662 0.3195,-0.47839c0.03435,-0.17177 -0.10306,-0.35471 -0.28686,-0.25766c-0.09575,0.06269 -0.17077,0.15235 -0.21558,0.25766c-0.07342,0.16312 -0.15958,0.32021 -0.25766,0.4698c-0.12282,0.16662 -0.27999,0.31005 -0.38563,0.4887c-0.14515,0.24478 -0.12368,0.44232 0.01117,0.68194c0.18552,0.33066 0.02748,0.56771 -0.02834,0.91641c-0.05497,0.3152 -0.1211,0.62268 -0.42943,0.77899c-0.23533,0.11938 -0.50587,0.06356 -0.6244,-0.18294c-0.07644,-0.16061 -0.07214,-0.35042 -0.11681,-0.52219c-0.03879,-0.14986 -0.09651,-0.29416 -0.17177,-0.42943c-0.23533,0.29631 -0.40109,0.73261 -0.83654,0.71801c-0.47238,-0.01546 -0.75494,-0.60121 -0.84598,-0.99715c-0.10908,-0.47324 0.11938,-0.79445 0.52477,-1.01089c0.51446,-0.27484 0.86488,-0.62783 1.22646,-1.08217c0.39995,-0.48991 0.77269,-1.00142 1.11653,-1.53222c0.24735,-0.38993 0.5471,-0.73347 1.05383,-0.68709c0.54452,0.04896 1.04524,0.41913 1.56056,0.57974c0.44403,0.13742 0.97997,0.17779 1.36045,0.46894c0.13828,0.10908 0.30576,0.26711 0.24134,0.45262c-0.0602,0.14681 -0.1797,0.26132 -0.32895,0.3152c-0.41913,0.17263 -0.79102,-0.06098 -1.19211,-0.14687c0.15931,0.37724 0.50429,0.64371 0.90954,0.70255c0.12288,0.01923 0.24833,0.01427 0.36931,-0.0146c0.19926,-0.05067 0.26281,-0.21643 0.34355,-0.38821l0.39078,-0.82108c0.06613,-0.13742 0.3006,-0.03779 0.2465,0.10392c-0.00514,0.01034 -0.00973,0.02095 -0.01374,0.03178v0.00601c-0.04123,0.11766 0.0481,0.17349 0.26968,0.16662c0.01632,-0.02662 0.0335,-0.05325 0.05067,-0.07987c0.03072,-0.0618 0.05324,-0.12734 0.06699,-0.19496c0.02932,-0.09985 0.07332,-0.19479 0.13055,-0.28171c0.12204,-0.15715 0.28791,-0.27461 0.47667,-0.33753c0.56513,-0.21815 1.21787,-0.28772 1.81908,-0.38134c0.00515,-0.25852 0.2276,-0.42256 0.49643,-0.41312c0.19993,0.02282 0.39686,0.06687 0.58747,0.13141l0.54452,0.13227c-0.17864,-0.34441 -0.35987,-0.68881 -0.51532,-1.04095c-0.10908,-0.24735 -0.15202,-0.5763 0.10994,-0.74807c0.28858,-0.19067 0.5617,0.08331 0.68709,0.32465c0.10221,0.19668 0.18895,0.35987 0.37962,0.48698c0.09968,0.06446 0.20522,0.11938 0.3152,0.16404c-0.02577,-0.28514 0.0335,-0.5952 0.30404,-0.67421c-0.03013,-0.11187 -0.04145,-0.22797 -0.0335,-0.34355c0.00093,-0.04787 0.02687,-0.09175 0.06835,-0.11566c0.04148,-0.02391 0.09246,-0.02434 0.13434,-0.00114c0.2903,0.17006 0.60464,0.34698 0.94046,0.33582c-0.2568,-0.25594 -0.62354,-0.46465 -0.57974,-0.87347c0.04208,-0.36158 0.36674,-0.52219 0.68709,-0.60121c-0.12454,-0.24993 -0.0292,-0.56943 0.16662,-0.78071c0.32723,-0.35385 0.83224,-0.5617 1.26769,-0.74292c0.13398,-0.05497 0.26968,-0.10822 0.40453,-0.16061c0.17521,-0.06699 0.31692,-0.13742 0.32293,-0.33324c0.00429,-0.1546 -0.03006,-0.32723 0.05583,-0.46722c0.05177,-0.10547 0.16186,-0.16949 0.27913,-0.16233c0.13856,0.11451 0.27627,0.22903 0.41312,0.34355c0.13456,0.11451 0.26797,0.22903 0.40023,0.34355l0.00945,0.00773c0.13112,0.11623 0.2611,0.2339 0.38993,0.35299l0.00945,0.00859c0.1294,0.12024 0.25737,0.24163 0.38391,0.36416c0.05583,0.0584 0.11423,0.11423 0.17177,0.17177c1.21837,1.20427 2.30232,2.53732 3.23278,3.9757c0.10306,0.1586 0.20384,0.31835 0.30232,0.47925c-0.00016,0.002 -0.00016,0.00401 0,0.00601c0.09734,0.15975 0.19296,0.32036 0.28686,0.48182l0.00773,0.01202c0.0919,0.15889 0.18552,0.32036 0.2714,0.48182l0.01117,0.0189c0.08589,0.15975 0.17177,0.32036 0.25766,0.48182l0.0146,0.02662c0.08159,0.15889 0.16147,0.3195 0.24048,0.48011l0.01718,0.03521c0.07672,0.15918 0.15173,0.31864 0.22502,0.47839c0.00687,0.01546 0.0146,0.03006 0.02147,0.04466c0.07129,0.15717 0.14085,0.31606 0.20956,0.47495l0.02405,0.05497c0.06613,0.15546 0.12969,0.31177 0.19325,0.46894l0.02662,0.06699c0.06184,0.15374 0.12024,0.30919 0.17864,0.46465c0.00945,0.02577 0.01975,0.05153 0.0292,0.07816c0.05669,0.15202 0.10994,0.3049 0.16318,0.45864l0.03178,0.09018c0.05039,0.15059 0.09963,0.30146 0.14773,0.45262c0.01117,0.03435 0.02319,0.06785 0.0335,0.10221c0.0481,0.14773 0.09018,0.29717 0.13398,0.44575c0.01117,0.03865 0.02319,0.07644 0.0335,0.11423c0.04208,0.14515 0.08073,0.29116 0.11938,0.43802c0.01202,0.04294 0.02405,0.08503 0.03521,0.12883c0.03693,0.14257 0.07129,0.286 0.10564,0.42943c0.01117,0.04724 0.02319,0.09448 0.03435,0.14171c0.03264,0.14085 0.0627,0.28171 0.09276,0.42342c0.01117,0.05153 0.02319,0.10221 0.0335,0.15288c0.02834,0.13828 0.05411,0.27656 0.08073,0.41569c0.01031,0.05497 0.02147,0.11079 0.03178,0.16662c0.02405,0.13484 0.04638,0.2714 0.06785,0.40796c0.00945,0.05926 0.02061,0.11852 0.03006,0.17779c0.01975,0.13398 0.03779,0.26883 0.05669,0.40367c0.00859,0.0627 0.01804,0.12454 0.02577,0.18723c0.01718,0.13398 0.03178,0.26797 0.04638,0.40195c0.00773,0.06442 0.01546,0.12883 0.02233,0.19325c0.01374,0.13398 0.02491,0.26883 0.03607,0.40281c0.00515,0.06613 0.01202,0.13141 0.01718,0.19754c0.01117,0.13914 0.0189,0.27999 0.02748,0.42085c0.00344,0.06098 0.01117,0.1211 0.01117,0.18208c0.00773,0.15202 0.01718,0.30404 0.01718,0.45606c0.00172,0.05067 0.00601,0.10135 0.00601,0.15116c0,0.20613 0.00029,0.40997 0.00086,0.61151zM530.62292,29.21024c-0.09227,-0.11092 -0.21497,-0.19242 -0.35299,-0.23447c-0.09448,-0.03521 -0.1941,-0.05583 -0.28944,-0.09104c-0.07478,-0.02307 -0.14426,-0.06073 -0.20441,-0.11079c-0.02474,-0.02169 -0.03892,-0.05299 -0.03892,-0.08589c0,-0.0329 0.01418,-0.0642 0.03892,-0.08589c0.04552,-0.18809 0.27312,-0.50072 -0.07043,-0.55483c-0.18637,-0.02662 -0.41569,0.05239 -0.60121,0.08589c-0.1964,0.0355 -0.3925,0.073 -0.58832,0.11251c-0.03309,-0.03146 -0.07964,-0.04444 -0.12423,-0.03462c-0.04459,0.00981 -0.08139,0.04113 -0.09822,0.08358c-0.15717,0.42428 -0.37103,0.9104 -0.41483,1.36474c-0.02834,0.29803 0.21815,0.46207 0.49557,0.3487c0.20098,-0.08159 0.35299,-0.22932 0.56857,-0.29201c0.2465,-0.07043 0.46035,-0.0773 0.66648,0.08589c0.22674,0.1795 0.62526,0.15975 0.88292,0.04294c0.25594,-0.11766 0.29803,-0.41741 0.13055,-0.6347zM532.44201,30.05193c0.03092,0.30919 0.3006,0.55225 0.55397,0.70341c0.21901,0.13055 0.52563,0.18637 0.71372,-0.04981c0.18809,-0.23619 0.02405,-0.44403 -0.12625,-0.63041c-0.05926,-0.073 -0.0919,-0.0146 -0.04208,-0.12196c0.01632,-0.02748 0.06613,-0.05669 0.08589,-0.08159c0.03946,-0.04764 0.0687,-0.1029 0.08589,-0.16233c0.03429,-0.11497 0.00109,-0.23945 -0.08589,-0.32208c-0.14687,-0.12969 -0.33668,-0.13656 -0.46121,-0.31349c-0.11989,-0.18978 -0.1742,-0.41366 -0.1546,-0.63728c0.13437,-0.10868 0.1754,-0.29601 0.09877,-0.45091c-0.10908,-0.23619 -0.4114,-0.30146 -0.64587,-0.23619c-0.65789,0.1838 -0.67936,0.93187 -0.32465,1.39995c0.0919,0.12024 0.43287,0.36502 0.40023,0.53679c-0.02577,0.13312 -0.11079,0.21214 -0.09791,0.36588zM534.505,33.30017h-0.02405c-0.30632,0.01661 -0.61239,-0.03685 -0.89494,-0.15631c-0.31606,-0.14687 -0.48955,-0.37876 -0.71887,-0.6244c-0.0584,-0.0627 -0.18809,-0.20183 -0.2903,-0.14429c-0.11852,0.06613 0.01031,0.26281 0.04896,0.33582c0.08403,0.16296 0.18232,0.31817 0.29373,0.46379c0.21386,0.26453 0.5033,0.50072 0.85887,0.51532c0.29803,0.01202 0.60808,-0.11595 0.7266,-0.38993z" fill="#8fd94e" fill-rule="nonzero" stroke="none" stroke-width="1"/></g></g></svg>