<svg version="1.1" xmlns="http://www.w3.org/2000/svg" xmlns:xlink="http://www.w3.org/1999/xlink" width="1759.40435" height="816.41023" viewBox="0,0,1759.40435,816.41023"><defs><radialGradient cx="523.977" cy="32.05826" r="20" gradientUnits="userSpaceOnUse" id="color-1"><stop offset="0" stop-color="#ff8080"/><stop offset="1" stop-color="#ff0000"/></radialGradient></defs><g transform="translate(559.70215,-12.05825)"><g stroke-miterlimit="10"><path d="M-559.70215,828.46849v-761.26126h1759.40435v761.26126z" fill="#f7f7f7" fill-rule="nonzero" stroke="none" stroke-width="0" stroke-linecap="butt"/><text transform="translate(90.72704,48.14535) scale(0.30852,0.30852)" font-size="40" xml:space="preserve" fill="#000000" fill-rule="nonzero" stroke="none" stroke-width="1" stroke-linecap="butt" font-family="&quot;Bahnschrift Universal&quot;, Sans Serif" font-weight="normal" text-anchor="start"><tspan x="0" dy="0">e1</tspan></text><text transform="translate(90.72704,26.62723) scale(0.30852,0.30852)" font-size="40" xml:space="preserve" fill="#000000" fill-rule="nonzero" stroke="#000000" stroke-width="2" stroke-linecap="butt" font-family="&quot;Bahnschrift Universal&quot;, Sans Serif" font-weight="normal" text-anchor="start"><tspan x="0" dy="0">Error</tspan></text><path d="M500.73778,28.06882c-0.03865,0.22588 -0.07386,0.45348 -0.10564,0.68108c0.03178,-0.23189 0.06699,-0.45949 0.10564,-0.68108z" fill="#74b140" fill-rule="evenodd" stroke="none" stroke-width="1" stroke-linecap="butt"/><path d="M500.9233,27.806c-0.07056,0.07966 -0.13326,0.16595 -0.18723,0.25766c0.03092,-0.17979 0.06356,-0.35843 0.09791,-0.53593v-0.00515c0.03521,-0.17864 0.07214,-0.35557 0.11079,-0.5325c0.05613,0.02289 0.1083,0.05449 0.1546,0.09362c0.09533,0.08159 0.20012,0.2276 0.17177,0.36158c-0.0335,0.15975 -0.24048,0.24478 -0.34784,0.36072z" fill="#74b140" fill-rule="evenodd" stroke="none" stroke-width="1" stroke-linecap="butt"/><path d="M501.58976,35.49459c-0.23189,-0.06356 -0.46379,-0.08331 -0.65016,-0.24993c-0.12368,-0.10994 -0.19926,-0.24478 -0.3633,-0.29803c-0.02147,-0.17693 -0.04123,-0.35385 -0.05926,-0.5325c0.09276,0.03092 0.18208,0.07129 0.25766,0.10392c0.16489,0.0715 0.32299,0.15773 0.47238,0.25766c0.13227,0.08932 0.25337,0.21815 0.39508,0.2903c0.18895,0.09533 0.41312,0.05239 0.61838,0.05067c0.20527,-0.00172 0.40968,0.00687 0.61495,0.01975c0.1065,0.00773 0.19153,0.14944 0.09533,0.23018c-0.19582,0.1649 -0.4217,0.34612 -0.68709,0.36931c-0.27484,0.02319 -0.44403,-0.17006 -0.69397,-0.24134z" fill="#74b140" fill-rule="evenodd" stroke="none" stroke-width="1" stroke-linecap="butt"/><path d="M503.5102,35.73248c0.25251,0.00687 0.57716,0.14171 0.41569,0.44919c-0.02389,0.04177 -0.0687,0.06714 -0.11681,0.06613c-0.27999,-0.01804 -0.50501,0.06356 -0.77298,0.10736c-0.12802,0.02683 -0.26146,0.00347 -0.37275,-0.06527c-0.03963,-0.00569 -0.07528,-0.02713 -0.09889,-0.05947c-0.0236,-0.03234 -0.03316,-0.07283 -0.02651,-0.11231c0.00321,-0.05553 0.03601,-0.10506 0.08589,-0.12969c0.08073,-0.10135 0.16834,-0.22331 0.28944,-0.25766c0.17521,-0.05067 0.41741,-0.00344 0.59691,0.00172z" fill="#74b140" fill-rule="evenodd" stroke="none" stroke-width="1" stroke-linecap="butt"/><text transform="translate(161.44962,114.64535) scale(0.30852,0.30852)" font-size="40" xml:space="preserve" fill="#000000" fill-rule="nonzero" stroke="none" stroke-width="1" stroke-linecap="butt" font-family="&quot;Bahnschrift Universal&quot;, Sans Serif" font-weight="normal" text-anchor="start"><tspan x="0" dy="0">This code either doesn't exist, or isn't available anymore.</tspan><tspan x="0" dy="48px">If you know the code you entered is genuine, try again.</tspan></text><path d="M503.977,32.05826c0,-11.0457 8.9543,-20 20,-20c11.0457,0 20,8.95431 20,20c0,11.0457 -8.9543,20 -20,20c-11.0457,0 -20,-8.9543 -20,-20z" fill="url(#color-1)" fill-rule="nonzero" stroke="none" stroke-width="0" stroke-linecap="butt"/><path d="M515.48746,23.56873l16.97906,16.97906" fill="none" fill-rule="nonzero" stroke="#ffffff" stroke-width="3" stroke-linecap="round"/><path d="M532.46653,23.56873l-16.97906,16.97906" fill="none" fill-rule="nonzero" stroke="#ffffff" stroke-width="3" stroke-linecap="round"/></g></g></svg>